<?xml version="1.0" standalone="no"?>
<svg xmlns="http://www.w3.org/2000/svg" viewBox="0 0 304.96484375 53" width="304.96484375" height="53"><rect fill="none" stroke="#ff8686" stroke-width="3" width="301.96484375" height="50" x="1.5" y="1.5"></rect><path fill="#fe0b01" fill-rule="nonzero" d="M3.75 25.05L3.75 24.27Q3.08 24.14 2.41 23.78Q1.75 23.41 1.21 22.66Q0.67 21.91 0.33 20.71Q0 19.51 0 17.70L0 17.70L0 10.61Q0 9.09 0.24 8.02Q0.48 6.95 0.88 6.22Q1.28 5.48 1.79 5.05Q2.30 4.62 2.85 4.39Q3.41 4.16 3.96 4.09Q4.51 4.02 4.98 4.02L4.98 4.02Q5.43 4.02 5.97 4.08Q6.52 4.15 7.06 4.37Q7.61 4.58 8.12 5.01Q8.64 5.44 9.04 6.17Q9.43 6.90 9.67 7.99Q9.91 9.07 9.91 10.61L9.91 10.61L9.91 17.70Q9.91 19.43 9.59 20.61Q9.26 21.79 8.74 22.54Q8.21 23.29 7.58 23.68Q6.94 24.07 6.30 24.22L6.30 24.22L6.30 24.40Q6.30 24.97 6.44 25.32Q6.57 25.68 6.84 25.87Q7.10 26.06 7.49 26.13Q7.89 26.19 8.40 26.19L8.40 26.19Q8.57 26.19 8.73 26.19Q8.89 26.19 9.04 26.18L9.04 26.18L9.04 27.82Q8.46 28.08 7.96 28.17Q7.45 28.27 6.89 28.27L6.89 28.27Q6.64 28.27 6.32 28.24Q5.99 28.21 5.64 28.10Q5.29 27.98 4.95 27.78Q4.62 27.57 4.35 27.22Q4.08 26.86 3.91 26.33Q3.75 25.80 3.75 25.05L3.75 25.05ZM4.98 22.10L4.98 22.10Q5.43 22.10 5.76 21.95Q6.09 21.80 6.31 21.42Q6.53 21.05 6.64 20.43Q6.75 19.82 6.75 18.88L6.75 18.88L6.75 9.77Q6.75 8.81 6.64 8.17Q6.53 7.52 6.31 7.13Q6.09 6.74 5.76 6.57Q5.43 6.41 4.98 6.41L4.98 6.41Q4.52 6.41 4.18 6.57Q3.84 6.74 3.62 7.13Q3.40 7.52 3.29 8.17Q3.18 8.81 3.18 9.77L3.18 9.77L3.18 18.88Q3.18 19.82 3.29 20.43Q3.40 21.05 3.62 21.42Q3.84 21.80 4.18 21.95Q4.52 22.10 4.98 22.10ZM12.83 18.06L12.83 4.20L15.89 4.20L15.89 18.87Q15.89 19.80 15.98 20.43Q16.08 21.05 16.28 21.42Q16.49 21.79 16.81 21.94Q17.13 22.10 17.58 22.10L17.58 22.10Q18.02 22.10 18.36 21.94Q18.69 21.79 18.91 21.42Q19.13 21.05 19.24 20.43Q19.35 19.80 19.35 18.87L19.35 18.87L19.35 4.20L22.37 4.20L22.37 18.06Q22.37 19.52 22.14 20.57Q21.90 21.61 21.52 22.31Q21.13 23.02 20.63 23.43Q20.13 23.84 19.60 24.05Q19.07 24.27 18.54 24.33Q18.01 24.39 17.58 24.39L17.58 24.39Q17.14 24.39 16.62 24.33Q16.10 24.27 15.57 24.05Q15.05 23.84 14.55 23.43Q14.06 23.02 13.68 22.31Q13.29 21.61 13.06 20.57Q12.83 19.54 12.83 18.06L12.83 18.06ZM25.72 24.21L25.72 4.20L28.76 4.20L28.76 24.21L25.72 24.21ZM27.22 3.90L25.99 2.53L29.75 0L31.27 1.96L27.22 3.90ZM32.18 24.21L32.18 4.20L36.14 4.20L38.06 11.94Q38.37 13.23 38.54 14.40Q38.72 15.56 38.88 16.59L38.88 16.59L38.98 16.59Q39.14 15.56 39.32 14.40Q39.49 13.23 39.80 11.94L39.80 11.94L41.78 4.20L45.66 4.20L45.66 24.21L42.82 24.21L42.82 17.59Q42.82 16.07 42.85 14.66Q42.88 13.25 42.93 12.08Q42.97 10.90 43.03 10.00Q43.09 9.09 43.14 8.57L43.14 8.57L42.91 8.57L39.89 21.63L37.97 21.63L34.92 8.57L34.70 8.57Q34.75 9.09 34.80 10.00Q34.86 10.90 34.91 12.08Q34.96 13.25 34.99 14.66Q35.02 16.07 35.02 17.59L35.02 17.59L35.02 24.21L32.18 24.21ZM49.08 24.21L49.08 4.20L52.11 4.20L52.11 24.21L49.08 24.21ZM59.85 24.39L59.85 24.39Q59.38 24.39 58.83 24.31Q58.29 24.23 57.74 23.99Q57.20 23.74 56.70 23.29Q56.20 22.84 55.82 22.10Q55.44 21.36 55.21 20.28Q54.98 19.20 54.98 17.70L54.98 17.70L54.98 10.61Q54.98 9.09 55.22 8.02Q55.45 6.95 55.84 6.22Q56.23 5.48 56.73 5.05Q57.23 4.62 57.77 4.39Q58.31 4.16 58.85 4.09Q59.38 4.02 59.84 4.02L59.84 4.02Q61.03 4.02 61.83 4.35Q62.64 4.69 63.12 5.27Q63.61 5.85 63.81 6.62Q64.02 7.39 64.02 8.26L64.02 8.26Q64.02 8.91 63.96 9.45Q63.89 10.00 63.76 10.65L63.76 10.65L61.30 10.65L61.30 9.63Q61.30 7.98 60.94 7.16Q60.57 6.34 59.87 6.34L59.87 6.34Q59.45 6.34 59.13 6.50Q58.82 6.67 58.61 7.06Q58.39 7.45 58.28 8.10Q58.17 8.74 58.17 9.70L58.17 9.70L58.17 18.84Q58.17 19.78 58.26 20.40Q58.35 21.02 58.55 21.40Q58.75 21.77 59.07 21.93Q59.39 22.09 59.85 22.09L59.85 22.09Q60.14 22.09 60.41 21.96Q60.68 21.82 60.88 21.53Q61.09 21.25 61.21 20.81Q61.34 20.37 61.34 19.77L61.34 19.77L61.34 17.81L64.11 17.81L64.11 19.66Q64.11 22.08 63.01 23.23Q61.91 24.38 59.85 24.39ZM65.02 24.21L68.71 4.20L72.20 4.20L75.90 24.21L72.83 24.21L72.28 20.63L68.63 20.63L68.10 24.21L65.02 24.21ZM68.98 18.34L71.93 18.34L70.52 8.37L70.39 8.37L68.98 18.34ZM82.97 24.21L82.97 4.20L86.00 4.20L86.00 24.21L82.97 24.21ZM89.43 24.21L89.43 4.20L91.89 4.20L96.74 17.59L96.81 17.59Q96.77 17.12 96.71 16.55Q96.66 15.97 96.61 15.24Q96.56 14.51 96.53 13.58Q96.49 12.66 96.49 11.50L96.49 11.50L96.49 4.20L99.21 4.20L99.21 24.21L96.73 24.21L91.90 11.17L91.80 11.17Q91.84 11.70 91.90 12.31Q91.96 12.93 92.00 13.76Q92.05 14.59 92.09 15.70Q92.12 16.80 92.12 18.33L92.12 18.33L92.12 24.21L89.43 24.21ZM102.63 24.21L102.63 4.20L105.79 4.20Q106.50 4.20 107.27 4.24Q108.04 4.28 108.77 4.49Q109.50 4.70 110.15 5.14Q110.80 5.58 111.29 6.37Q111.79 7.16 112.07 8.36Q112.36 9.56 112.36 11.30L112.36 11.30L112.36 17.11Q112.36 18.84 112.07 20.05Q111.79 21.26 111.29 22.04Q110.80 22.83 110.15 23.27Q109.50 23.71 108.77 23.92Q108.04 24.13 107.27 24.17Q106.50 24.21 105.79 24.21L105.79 24.21L102.63 24.21ZM105.67 22.09L106.44 22.09Q107.26 22.09 107.79 21.88Q108.33 21.67 108.64 21.13Q108.95 20.60 109.07 19.68Q109.18 18.76 109.18 17.36L109.18 17.36L109.18 11.14Q109.18 9.74 109.07 8.82Q108.95 7.90 108.64 7.37Q108.33 6.83 107.79 6.62Q107.26 6.41 106.44 6.41L106.44 6.41L105.67 6.41L105.67 22.09ZM115.00 18.06L115.00 4.20L118.05 4.20L118.05 18.87Q118.05 19.80 118.15 20.43Q118.24 21.05 118.45 21.42Q118.65 21.79 118.97 21.94Q119.30 22.10 119.74 22.10L119.74 22.10Q120.19 22.10 120.52 21.94Q120.86 21.79 121.07 21.42Q121.29 21.05 121.40 20.43Q121.51 19.80 121.51 18.87L121.51 18.87L121.51 4.20L124.54 4.20L124.54 18.06Q124.54 19.52 124.30 20.57Q124.07 21.61 123.68 22.31Q123.29 23.02 122.79 23.43Q122.30 23.84 121.76 24.05Q121.23 24.27 120.70 24.33Q120.18 24.39 119.74 24.39L119.74 24.39Q119.31 24.39 118.79 24.33Q118.27 24.27 117.74 24.05Q117.21 23.84 116.72 23.43Q116.23 23.02 115.84 22.31Q115.45 21.61 115.22 20.57Q115.00 19.54 115.00 18.06L115.00 18.06ZM127.11 20.16L127.11 20.16Q127.11 19.51 127.19 18.97Q127.27 18.42 127.42 17.79L127.42 17.79L129.77 17.79L129.77 18.76Q129.77 19.57 129.87 20.19Q129.97 20.81 130.20 21.24Q130.43 21.67 130.81 21.88Q131.19 22.10 131.74 22.10L131.74 22.10Q132.61 22.10 133.07 21.63Q133.52 21.15 133.52 20.24L133.52 20.24Q133.52 19.77 133.46 19.38Q133.39 18.98 133.24 18.60Q133.08 18.21 132.81 17.78Q132.54 17.36 132.12 16.83L132.12 16.83L128.95 13.07Q128.11 11.99 127.65 10.89Q127.20 9.80 127.20 8.55L127.20 8.55Q127.20 7.56 127.51 6.73Q127.82 5.89 128.40 5.29Q128.99 4.69 129.85 4.35Q130.71 4.02 131.80 4.02L131.80 4.02Q133.13 4.02 134.01 4.39Q134.89 4.77 135.42 5.38Q135.95 5.99 136.17 6.74Q136.38 7.50 136.38 8.26L136.38 8.26Q136.38 8.91 136.28 9.45Q136.18 10.00 136.05 10.65L136.05 10.65L133.71 10.65L133.71 9.70Q133.71 8.11 133.25 7.26Q132.80 6.41 131.77 6.41L131.77 6.41Q130.91 6.41 130.49 6.88Q130.07 7.36 130.07 8.16L130.07 8.16Q130.07 8.58 130.13 8.92Q130.20 9.26 130.32 9.54Q130.44 9.83 130.62 10.10Q130.79 10.37 131.02 10.66L131.02 10.66L134.54 14.93Q135.50 16.18 136.02 17.34Q136.54 18.49 136.54 19.78L136.54 19.78Q136.54 20.85 136.20 21.70Q135.87 22.56 135.25 23.16Q134.63 23.75 133.75 24.08Q132.87 24.40 131.77 24.40L131.77 24.40Q130.41 24.40 129.51 24.04Q128.61 23.67 128.08 23.07Q127.55 22.48 127.33 21.71Q127.11 20.95 127.11 20.16ZM140.94 24.21L140.94 6.59L137.72 6.59L137.72 4.20L147.19 4.20L147.19 6.59L143.98 6.59L143.98 24.21L140.94 24.21ZM149.24 24.21L149.24 4.20L152.53 4.20Q153.09 4.20 153.77 4.24Q154.44 4.29 155.12 4.47Q155.79 4.65 156.42 5.02Q157.04 5.38 157.53 6.01Q158.02 6.64 158.31 7.60Q158.60 8.55 158.60 9.91L158.60 9.91L158.60 10.42Q158.60 12.70 157.95 14.14Q157.29 15.57 156.01 16.21L156.01 16.21L159.22 24.21L156.01 24.21L153.35 16.72L152.21 16.72L152.21 24.21L149.24 24.21ZM152.21 14.53L152.67 14.53Q153.47 14.53 154.02 14.36Q154.57 14.18 154.91 13.76Q155.25 13.35 155.40 12.66Q155.55 11.98 155.55 10.97L155.55 10.97L155.55 9.39Q155.55 8.61 155.41 8.05Q155.27 7.49 154.94 7.13Q154.61 6.76 154.05 6.59Q153.50 6.41 152.67 6.41L152.67 6.41L152.21 6.41L152.21 14.53ZM161.52 24.21L161.52 4.20L164.55 4.20L164.55 24.21L161.52 24.21ZM166.49 24.21L170.18 4.20L173.67 4.20L177.38 24.21L174.30 24.21L173.75 20.63L170.10 20.63L169.57 24.21L166.49 24.21ZM170.45 18.34L173.40 18.34L172.00 8.37L171.87 8.37L170.45 18.34ZM179.31 24.21L179.31 4.20L182.34 4.20L182.34 21.82L186.48 21.82L186.48 24.21L179.31 24.21ZM192.76 20.16L192.76 20.16Q192.76 19.51 192.84 18.97Q192.91 18.42 193.07 17.79L193.07 17.79L195.42 17.79L195.42 18.76Q195.42 19.57 195.52 20.19Q195.62 20.81 195.85 21.24Q196.08 21.67 196.46 21.88Q196.84 22.10 197.39 22.10L197.39 22.10Q198.26 22.10 198.71 21.63Q199.17 21.15 199.17 20.24L199.17 20.24Q199.17 19.77 199.11 19.38Q199.04 18.98 198.88 18.60Q198.73 18.21 198.46 17.78Q198.19 17.36 197.77 16.83L197.77 16.83L194.60 13.07Q193.76 11.99 193.30 10.89Q192.84 9.80 192.84 8.55L192.84 8.55Q192.84 7.56 193.15 6.73Q193.46 5.89 194.05 5.29Q194.64 4.69 195.50 4.35Q196.36 4.02 197.45 4.02L197.45 4.02Q198.77 4.02 199.66 4.39Q200.54 4.77 201.07 5.38Q201.60 5.99 201.81 6.74Q202.03 7.50 202.03 8.26L202.03 8.26Q202.03 8.91 201.93 9.45Q201.83 10.00 201.70 10.65L201.70 10.65L199.36 10.65L199.36 9.70Q199.36 8.11 198.90 7.26Q198.45 6.41 197.41 6.41L197.41 6.41Q196.56 6.41 196.14 6.88Q195.71 7.36 195.71 8.16L195.71 8.16Q195.71 8.58 195.78 8.92Q195.84 9.26 195.97 9.54Q196.09 9.83 196.27 10.10Q196.44 10.37 196.66 10.66L196.66 10.66L200.19 14.93Q201.15 16.18 201.67 17.34Q202.18 18.49 202.18 19.78L202.18 19.78Q202.18 20.85 201.85 21.70Q201.52 22.56 200.89 23.16Q200.27 23.75 199.39 24.08Q198.52 24.40 197.41 24.40L197.41 24.40Q196.05 24.40 195.16 24.04Q194.26 23.67 193.73 23.07Q193.20 22.48 192.98 21.71Q192.76 20.95 192.76 20.16ZM204.09 22.11L204.09 22.11Q204.09 20.87 204.59 20.33Q205.08 19.79 205.92 19.79L205.92 19.79Q206.80 19.79 207.28 20.37Q207.76 20.94 207.76 22.11L207.76 22.11Q207.76 23.19 207.28 23.78Q206.79 24.38 205.91 24.38L205.91 24.38Q205.08 24.38 204.59 23.80Q204.09 23.23 204.09 22.11ZM209.12 24.21L212.81 4.20L216.30 4.20L220.01 24.21L216.94 24.21L216.39 20.63L212.73 20.63L212.20 24.21L209.12 24.21ZM213.08 18.34L216.04 18.34L214.63 8.37L214.50 8.37L213.08 18.34ZM221.30 22.11L221.30 22.11Q221.30 20.87 221.79 20.33Q222.28 19.79 223.13 19.79L223.13 19.79Q224.00 19.79 224.48 20.37Q224.96 20.94 224.96 22.11L224.96 22.11Q224.96 23.19 224.48 23.78Q223.99 24.38 223.11 24.38L223.11 24.38Q222.28 24.38 221.79 23.80Q221.30 23.23 221.30 22.11Z" transform="translate(12 12.368)"></path><line x1="248.965" y1="0" x2="248.965" y2="100%" stroke="#ff8686" stroke-width="3"></line><g fill="#fe0b01" color="#fe0b01" transform="translate(262.465, 12) scale(0.9666667)"><svg width="30.0" height="30.0" x="0.0" y="0.0" viewBox="0 0 30 30"><title></title><desc></desc><g stroke="none" stroke-width="1" fill="none" fill-rule="evenodd"><g transform="translate(-45.000000, -135.000000)" fill="currentColor"><path d="M64,137.504611 L64,135.495389 C64,135.221793 63.7692032,135 63.4995642,135 L56.5004358,135 C56.2240528,135 56,135.215753 56,135.495389 L56,137.504611 C56,137.778207 56.2319336,138 56.5,138 L57,138 L57,143.848612 L45.5547181,161.016535 C45.2483557,161.476079 45,162.286799 45,162.845731 L45,163.004178 C45,164.10644 45.8978404,165 46.991617,165 L73.008383,165 C74.1083227,165 75,164.105368 75,163.004178 L75,162.845731 C75,162.295037 74.7493629,161.472657 74.4452819,161.016535 L63,143.848612 L63,138 L63.5,138 C63.7761424,138 64,137.784247 64,137.504611 Z M57.5,137 L57,137 L57,136 L63,136 L63,137 L62.5,137 C62.2238576,137 62,137.221869 62,137.491544 L62,143.659844 C62,143.931316 62.1187682,144.32954 62.2731833,144.561163 L68.5668193,154.001617 L51.4346268,153.999448 L57.7268167,144.561163 C57.8776916,144.33485 58,143.929519 58,143.659844 L58,137.491544 C58,137.220072 57.7680664,137 57.5,137 Z M62,150 C62.5522847,150 63,149.552285 63,149 C63,148.447715 62.5522847,148 62,148 C61.4477153,148 61,148.447715 61,149 C61,149.552285 61.4477153,150 62,150 Z M58,152 C58.5522847,152 59,151.552285 59,151 C59,150.447715 58.5522847,150 58,150 C57.4477153,150 57,150.447715 57,151 C57,151.552285 57.4477153,152 58,152 Z"></path></g></g></svg></g></svg>